<?xml version="1.0" encoding="utf-8"?>
<!-- Generator: Adobe Illustrator 19.2.1, SVG Export Plug-In . SVG Version: 6.00 Build 0)  -->
<svg version="1.1" id="Layer_1" xmlns="http://www.w3.org/2000/svg" xmlns:xlink="http://www.w3.org/1999/xlink" x="0px" y="0px"
	 viewBox="0 0 24 24" style="enable-background:new 0 0 24 24;" xml:space="preserve">
<title>backarrow</title>
<path d="M23.2,11.2H2.8l7.7-7.1c0.3-0.3,0.3-0.8,0.1-1.1C10.2,2.8,9.8,2.8,9.5,3l-9.2,8.4l0,0l-0.1,0.1c0,0,0,0-0.1,0.1
	c0,0,0,0.1-0.1,0.1c0,0,0,0,0,0.1s0,0.1-0.1,0.2l0,0c0,0.1,0,0.1,0,0.2c0,0.1,0,0.1,0,0.2l0,0c0,0.1,0,0.1,0.1,0.2c0,0,0,0,0,0.1
	c0,0,0,0.1,0.1,0.1c0,0,0,0,0,0.1l0.1,0.1l0,0L9.4,21c0.2,0.2,0.3,0.2,0.5,0.2s0.4-0.1,0.5-0.2c0.3-0.3,0.2-0.8-0.1-1.1l-7.6-7.2
	h20.5c0.5,0,0.8-0.3,0.8-0.8S23.7,11.2,23.2,11.2z"/>
</svg>
