<?xml version="1.0" encoding="utf-8"?>
<!-- Generator: Adobe Illustrator 19.2.1, SVG Export Plug-In . SVG Version: 6.00 Build 0)  -->
<svg version="1.1" id="Layer_1" xmlns="http://www.w3.org/2000/svg" xmlns:xlink="http://www.w3.org/1999/xlink" x="0px" y="0px"
	 viewBox="0 0 24 24" style="enable-background:new 0 0 24 24;" xml:space="preserve">
<title>Caution</title>
<g id="Layer_2">
	<g id="Filled_Icons">
		<path d="M23.9,23.2L12.5,0.3C12.3,0,12-0.1,11.7,0.1c-0.1,0-0.1,0.1-0.2,0.2L0.1,23.2c-0.1,0.2-0.1,0.6,0.2,0.7
			C0.3,24,0.4,24,0.5,24h23c0.3,0,0.5-0.3,0.5-0.5C24,23.4,24,23.3,23.9,23.2z M11.5,8.5c-0.1-0.3,0.1-0.6,0.4-0.6
			c0.3-0.1,0.6,0.1,0.6,0.4c0,0.1,0,0.2,0,0.3v8c0.1,0.3-0.1,0.6-0.4,0.6c-0.3,0.1-0.6-0.1-0.6-0.4c0-0.1,0-0.2,0-0.3V8.5z M12,21
			c-0.6,0-1-0.4-1-1s0.4-1,1-1s1,0.4,1,1S12.6,21,12,21z"/>
	</g>
</g>
</svg>
