<?xml version="1.0" encoding="utf-8"?>
<!-- Generator: Adobe Illustrator 19.2.1, SVG Export Plug-In . SVG Version: 6.00 Build 0)  -->
<svg version="1.1" id="Layer_1" xmlns="http://www.w3.org/2000/svg" xmlns:xlink="http://www.w3.org/1999/xlink" x="0px" y="0px"
	 viewBox="0 0 24 24" style="enable-background:new 0 0 24 24;" xml:space="preserve">
<path d="M13.8,12.2H1.7l4.7-4.3c0.2-0.2,0.2-0.5,0-0.7C6.3,7,6,7,5.8,7.2l-5.6,5.1l0,0l0,0l0,0c0,0,0,0,0,0.1l0,0c0,0,0,0,0,0.1l0,0
	v0.1v0.1l0,0v0.1l0,0c0,0,0,0,0,0.1l0,0l0,0l0,0l5.6,5.2c0.1,0.1,0.2,0.1,0.3,0.1c0.1,0,0.3-0.1,0.3-0.2c0.2-0.2,0.2-0.5,0-0.7
	l-4.7-4.2h12.1c0.3,0,0.5-0.2,0.5-0.5C14.3,12.4,14,12.2,13.8,12.2z"/>
<path d="M10.2,10.2h12.1l-4.7-4.3c-0.2-0.2-0.2-0.5,0-0.7c0.2-0.2,0.5-0.2,0.7,0l5.6,5.2l0,0l0,0l0,0c0,0,0,0,0,0.1l0,0
	c0,0,0,0,0,0.1l0,0v0.1v0.1l0,0v0.1l0,0c0,0,0,0,0,0.1l0,0l0,0l0,0l-5.6,5.2c-0.1,0.1-0.2,0.1-0.3,0.1c-0.1,0-0.3-0.1-0.3-0.2
	c-0.2-0.2-0.2-0.5,0-0.7l4.7-4.3H10.2c-0.3,0-0.5-0.2-0.5-0.5C9.7,10.4,10,10.2,10.2,10.2z"/>
</svg>
