<?xml version="1.0" encoding="utf-8"?>
<!-- Generator: Adobe Illustrator 19.2.1, SVG Export Plug-In . SVG Version: 6.00 Build 0)  -->
<svg version="1.1" id="Layer_1" xmlns="http://www.w3.org/2000/svg" xmlns:xlink="http://www.w3.org/1999/xlink" x="0px" y="0px"
	 viewBox="0 0 24 24" style="enable-background:new 0 0 24 24;" xml:space="preserve">
<title>clone</title>
<path d="M23.5,0H3.5C3.3,0,3,0.2,3,0.5V4H0.5C0.2,4,0,4.2,0,4.5v19C0,23.8,0.2,24,0.5,24h19c0.3,0,0.5-0.2,0.5-0.5V21h3.6
	c0.3,0,0.5-0.2,0.5-0.5V0.5C24,0.2,23.8,0,23.5,0z M19,23H1V5h2v15.6C3,20.8,3.2,21,3.5,21H19C19,21,19,23,19,23z"/>
</svg>
