<?xml version="1.0" encoding="utf-8"?>
<!-- Generator: Adobe Illustrator 19.2.1, SVG Export Plug-In . SVG Version: 6.00 Build 0)  -->
<svg version="1.1" id="Layer_1" xmlns="http://www.w3.org/2000/svg" xmlns:xlink="http://www.w3.org/1999/xlink" x="0px" y="0px"
	 viewBox="0 0 24 24" style="enable-background:new 0 0 24 24;" xml:space="preserve">
<title>delete</title>
<g id="Layer_2">
	<g id="Filled_Icons">
		<path d="M23,3h-7V0.5C16,0.2,15.8,0,15.5,0h-8C7.2,0,7,0.2,7,0.5V3H1C0.7,3,0.5,3.2,0.5,3.5S0.7,4,1,4h2v19.5
			C3,23.8,3.2,24,3.5,24h16c0.3,0,0.5-0.2,0.5-0.5V4h3c0.3,0,0.5-0.2,0.5-0.5S23.3,3,23,3z M8,18.5C8,18.8,7.8,19,7.5,19
			S7,18.8,7,18.5v-11C7,7.2,7.2,7,7.5,7S8,7.2,8,7.5V18.5z M8,1h7v2H8V1z M12,18.5c0,0.3-0.2,0.5-0.5,0.5S11,18.8,11,18.5v-11
			C11,7.2,11.2,7,11.5,7S12,7.2,12,7.5V18.5z M16,18.5c0,0.3-0.2,0.5-0.5,0.5S15,18.8,15,18.5v-11C15,7.2,15.2,7,15.5,7
			S16,7.2,16,7.5V18.5z"/>
	</g>
</g>
</svg>
