<?xml version="1.0" encoding="utf-8"?>
<!-- Generator: Adobe Illustrator 19.2.1, SVG Export Plug-In . SVG Version: 6.00 Build 0)  -->
<svg version="1.1" id="Layer_1" xmlns="http://www.w3.org/2000/svg" xmlns:xlink="http://www.w3.org/1999/xlink" x="0px" y="0px"
	 viewBox="0 0 24 24" style="enable-background:new 0 0 24 24;" xml:space="preserve">
<title>doublechevron</title>
<g id="Layer_2">
	<g id="Arrows">
		<path d="M21.8,3.3c-0.6,0-1.1,0.2-1.5,0.6l-7.6,6.5c-0.9,0.8-0.9,2.2-0.1,3.1c0,0,0,0,0.1,0.1l7.6,6.5c0.8,0.9,2.2,0.9,3.1,0
			c0.9-0.8,0.9-2.2,0-3.1c0,0-0.1-0.1-0.1-0.1l-6-5l6-5c0.8-0.9,0.8-2.2,0-3.1C22.9,3.5,22.4,3.3,21.8,3.3z"/>
		<path d="M9.8,3.3c-0.6,0-1.1,0.2-1.5,0.6l-7.6,6.5c-0.9,0.8-0.9,2.2-0.1,3.1c0,0,0,0,0.1,0.1l7.6,6.5c0.8,0.9,2.2,0.9,3.1,0
			c0.9-0.8,0.9-2.2,0-3.1c0,0-0.1-0.1-0.1-0.1l-6-5l6-5c0.8-0.9,0.8-2.2,0-3.1C10.9,3.5,10.4,3.3,9.8,3.3z"/>
	</g>
</g>
</svg>
