<svg xmlns="http://www.w3.org/2000/svg" viewBox="0 0 24 24"><title>dragdropobject</title><g id="Layer_2" data-name="Layer 2"><g id="Filled_Icons" data-name="Filled Icons"><path d="M8.92,11.28H2.47L3.8,9.95a.72.72,0,1,0-1-1L.21,11.49a.72.72,0,0,0,0,1l2.56,2.56a.72.72,0,1,0,1-1L2.47,12.72H8.92a.72.72,0,0,0,0-1.45Z"/><path d="M11.28,8.92V2.47L9.95,3.8a.72.72,0,1,1-1-1L11.49.21a.72.72,0,0,1,1,0l2.56,2.56a.72.72,0,1,1-1,1L12.72,2.47V8.92a.72.72,0,0,1-1.45,0Z"/><path d="M11.28,15.08v6.45L9.95,20.2a.72.72,0,1,0-1,1l2.56,2.56a.72.72,0,0,0,1,0l2.56-2.56a.72.72,0,1,0-1-1l-1.33,1.33V15.08a.72.72,0,0,0-1.45,0Z"/><path d="M15.08,11.28h6.45L20.2,9.95a.72.72,0,1,1,1-1l2.56,2.56a.72.72,0,0,1,0,1l-2.56,2.56a.72.72,0,1,1-1-1l1.33-1.33H15.08a.72.72,0,0,1,0-1.45Z"/></g></g></svg>