<?xml version="1.0" encoding="utf-8"?>
<!-- Generator: Adobe Illustrator 19.2.1, SVG Export Plug-In . SVG Version: 6.00 Build 0)  -->
<svg version="1.1" id="Layer_1" xmlns="http://www.w3.org/2000/svg" xmlns:xlink="http://www.w3.org/1999/xlink" x="0px" y="0px"
	 viewBox="0 0 24 24" style="enable-background:new 0 0 24 24;" xml:space="preserve">
<title>dragdroplist</title>
<g id="Layer_2">
	<g id="Filled_Icons">
		<path d="M18.3,19.7H0.7c-0.4,0-0.7-0.2-0.7-0.6s0.2-0.7,0.6-0.7c0.1,0,0.1,0,0.2,0h17.7c0.4,0,0.7,0.2,0.7,0.6s-0.2,0.7-0.6,0.7
			C18.4,19.7,18.4,19.7,18.3,19.7z M23.3,12.7H5.7c0,0-0.7-0.3-0.7-0.7s0.3-0.7,0.7-0.7l0,0h17.7c0.4,0,0.7,0.2,0.7,0.6
			s-0.2,0.7-0.6,0.7C23.4,12.7,23.4,12.7,23.3,12.7z M18.3,5.7H0.7C0.3,5.7,0,5.4-0.1,5.1c0-0.4,0.2-0.7,0.6-0.7c0.1,0,0.1,0,0.2,0
			h17.7c0.4,0,0.7,0.2,0.7,0.6s-0.2,0.7-0.6,0.7C18.4,5.7,18.4,5.7,18.3,5.7z"/>
	</g>
</g>
</svg>
