<?xml version="1.0" encoding="utf-8"?>
<!-- Generator: Adobe Illustrator 21.1.0, SVG Export Plug-In . SVG Version: 6.00 Build 0)  -->
<!DOCTYPE svg PUBLIC "-//W3C//DTD SVG 1.1//EN" "http://www.w3.org/Graphics/SVG/1.1/DTD/svg11.dtd">
<svg version="1.1" id="Layer_1" xmlns="http://www.w3.org/2000/svg" xmlns:xlink="http://www.w3.org/1999/xlink" x="0px" y="0px"
	 viewBox="0 0 24 24" style="enable-background:new 0 0 24 24;" xml:space="preserve">
<title>edit</title>
<g>
	<path d="M19.5,11c-0.3,0-0.5,0.2-0.5,0.5V23H1V3h13.5C14.8,3,15,2.7,15,2.5S14.8,2,14.5,2h-14C0.2,2,0,2.2,0,2.5v21
		C0,23.7,0.2,24,0.5,24h19c0.3,0,0.5-0.2,0.5-0.5v-12C20,11.2,19.8,11,19.5,11z"/>
	<path d="M24,3.3c0-0.1-0.1-0.3-0.1-0.4L21,0.1c-0.2-0.2-0.5-0.2-0.7,0L9.6,10.8c0,0-0.1,0.1-0.1,0.2l0,0c0,0,0,0,0,0l-2.1,4.9
		c-0.1,0.2,0,0.4,0.1,0.6c0.1,0.1,0.2,0.1,0.4,0.1c0.1,0,0.1,0,0.2,0l4.9-2.1c0.1,0,0.1-0.1,0.1-0.1c0,0,0,0,0,0c0,0,0,0,0,0
		s0,0,0,0L22,5.5c0,0,0,0,0,0s0,0,0,0l1.8-1.8C23.9,3.6,24,3.5,24,3.3z M12.8,13.3l-2.1-2.1L18.8,3L21,5.2L12.8,13.3z M10.2,12.1
		l1.8,1.8l-3.1,1.3L10.2,12.1z M21.7,4.5l-2.1-2.1l1.1-1.1l2.1,2.1L21.7,4.5z"/>
</g>
</svg>
