<?xml version="1.0" encoding="utf-8"?>
<!-- Generator: Adobe Illustrator 19.2.1, SVG Export Plug-In . SVG Version: 6.00 Build 0)  -->
<svg version="1.1" id="Layer_1" xmlns="http://www.w3.org/2000/svg" xmlns:xlink="http://www.w3.org/1999/xlink" x="0px" y="0px"
	 viewBox="0 0 132 132" style="enable-background:new 0 0 132 132;" xml:space="preserve">
<path id="X_copy_15" d="M66,132c-36.1,0-66-29.9-66-66S29.9,0,66,0s66,29.9,66,66l0,0C132,102.1,102.1,132,66,132z M92.4,47.5
	c1.8-1.8,0.9-5.3-0.9-6.2l0,0c-1.8-1.8-4.4-2.6-6.2-0.9L66.9,59L46.6,39.6c-1.8-1.8-5.3-0.9-6.2,0.9l0,0c-1.8,1.8-2.6,4.4-0.9,6.2
	L59.8,66L40.5,85.4c-1.8,1.8-0.9,5.3,0.9,6.2l0,0c1.8,1.8,4.4,2.6,6.2,0.9L66.9,73l18.5,18.5c1.8,1.8,5.3,0.9,6.2-0.9l0,0
	c1.8-1.8,2.6-4.4,0.9-6.2L73.9,66L92.4,47.5z"/>
</svg>
