<?xml version="1.0" encoding="utf-8"?>
<!-- Generator: Adobe Illustrator 19.2.1, SVG Export Plug-In . SVG Version: 6.00 Build 0)  -->
<svg version="1.1" id="Layer_1" xmlns="http://www.w3.org/2000/svg" xmlns:xlink="http://www.w3.org/1999/xlink" x="0px" y="0px"
	 viewBox="0 0 24 24" style="enable-background:new 0 0 24 24;" xml:space="preserve">
<title>grid</title>
<g id="Layer_2">
	<g id="Filled_Icons">
		<path d="M10.8,1.8H0.3C0.1,1.8,0,2,0,2.1c0,0,0,0,0,0v5c0,0.2,0.1,0.3,0.3,0.3h10.5c0.2,0,0.3-0.1,0.3-0.3v-5
			C11.1,2,11,1.8,10.8,1.8z"/>
		<path d="M23.7,1.8H13.2c-0.1,0-0.3,0.1-0.3,0.3c0,0,0,0,0,0V7c0,0.2,0.1,0.4,0.3,0.4h10.5c0.2,0,0.3-0.1,0.3-0.3c0,0,0,0,0,0v-5
			C24,2,23.9,1.8,23.7,1.8z"/>
		<path d="M10.8,9.2H0.3C0.1,9.2,0,9.4,0,9.5v5c0,0.2,0.1,0.3,0.3,0.3h10.5c0.2,0,0.3-0.1,0.3-0.3v-5C11.1,9.4,11,9.2,10.8,9.2z"/>
		<path d="M23.7,9.2H13.2c-0.2,0-0.3,0.1-0.3,0.3v5c0,0.2,0.1,0.3,0.3,0.3h10.5c0.2,0,0.3-0.1,0.3-0.3v0v-5
			C24,9.4,23.9,9.2,23.7,9.2L23.7,9.2z"/>
		<path d="M10.8,16.6H0.3c-0.2,0-0.3,0.1-0.3,0.3v5c0,0.2,0.1,0.3,0.3,0.3c0,0,0,0,0,0h10.5c0.2,0,0.3-0.1,0.3-0.3l0,0v-5
			C11.1,16.7,11,16.6,10.8,16.6z"/>
		<path d="M23.7,16.6H13.2c-0.2,0-0.3,0.1-0.3,0.3v5c0,0.2,0.1,0.3,0.3,0.3h0h10.5c0.2,0,0.3-0.1,0.3-0.3c0,0,0,0,0-0.1v-5
			C24,16.7,23.9,16.6,23.7,16.6z"/>
	</g>
</g>
</svg>
