<?xml version="1.0" encoding="utf-8"?>
<!-- Generator: Adobe Illustrator 19.2.1, SVG Export Plug-In . SVG Version: 6.00 Build 0)  -->
<svg version="1.1" id="Layer_1" xmlns="http://www.w3.org/2000/svg" xmlns:xlink="http://www.w3.org/1999/xlink" x="0px" y="0px"
	 viewBox="0 0 24 24" style="enable-background:new 0 0 24 24;" xml:space="preserve">
<title>link</title>
<g id="Layer_2">
	<g id="Filled_Icons">
		<path d="M13.5,10.3c-0.6,0-1-0.4-1-1c-0.1-0.8,0.3-1.6,1.1-2c0.6-0.3,1.2-0.4,1.9-0.3H20c2.2,0,4,1,4,3.2v3.6c0.1,1-0.5,2-1.3,2.6
			c-0.8,0.4-1.7,0.7-2.7,0.6h-4.5c-1,0-3,0-3-2c0-0.6,0.4-1,1-1c0.5,0,0.9,0.3,1,1H20c1,0,2-0.2,2-1.1v-3.6C22,9.1,20.9,9,20,9h-5.5
			v0.3C14.5,9.9,14.1,10.3,13.5,10.3C13.5,10.3,13.5,10.3,13.5,10.3z"/>
		<path d="M10.5,10.3c0.6,0,1-0.4,1-1c0.1-0.8-0.3-1.6-1.1-2C9.9,7.1,9.2,6.9,8.6,7H4c-2.2,0-4,1-4,3.2v3.6c-0.1,1,0.5,2,1.3,2.5
			C2.2,16.8,3.1,17.1,4,17h4.5c1,0,3,0,3-2c0-0.6-0.4-1-1-1c-0.5,0-0.9,0.3-1,1H4c-1,0-2-0.2-2-1.1v-3.6C2,9.1,3.1,9,4,9h5.5v0.3
			C9.5,9.9,9.9,10.3,10.5,10.3C10.5,10.3,10.5,10.3,10.5,10.3z"/>
		<path d="M18,12c0-0.6-0.4-1-1-1H7c-0.6,0-1,0.4-1,1s0.4,1,1,1h10C17.6,13,18,12.6,18,12z"/>
	</g>
</g>
</svg>
