<?xml version="1.0" encoding="utf-8"?>
<!-- Generator: Adobe Illustrator 19.2.1, SVG Export Plug-In . SVG Version: 6.00 Build 0)  -->
<svg version="1.1" id="Layer_1" xmlns="http://www.w3.org/2000/svg" xmlns:xlink="http://www.w3.org/1999/xlink" x="0px" y="0px"
	 viewBox="0 0 24 24" style="enable-background:new 0 0 24 24;" xml:space="preserve">
<title>list</title>
<g id="Layer_2">
	<g id="Filled_Icons">
		<path d="M1.4,5.6h21.2c0.9-0.1,1.5-1,1.4-1.9c0.1-0.9-0.5-1.7-1.4-1.8H1.4C0.5,2-0.1,2.8,0,3.7C-0.1,4.6,0.5,5.4,1.4,5.6z"/>
		<path d="M22.6,7.4H1.4C0.5,7.5-0.1,8.3,0,9.2c-0.1,0.9,0.5,1.7,1.4,1.8h21.2c0.9-0.1,1.5-1,1.4-1.8C24.1,8.3,23.5,7.5,22.6,7.4z"
			/>
		<path d="M22.6,12.9H1.4c-0.9,0.1-1.5,1-1.4,1.9c-0.1,0.9,0.5,1.7,1.4,1.9h21.2c0.9-0.1,1.5-1,1.4-1.9C24.1,13.9,23.5,13,22.6,12.9
			z"/>
		<path d="M22.6,18.5H1.4c-0.9,0.1-1.5,1-1.4,1.8c-0.1,0.9,0.5,1.7,1.4,1.8h21.2c0.9-0.1,1.5-1,1.4-1.8
			C24.1,19.4,23.5,18.6,22.6,18.5z"/>
	</g>
</g>
</svg>
