<svg xmlns="http://www.w3.org/2000/svg" viewBox="0 0 24 24"><title>localization</title><g id="Layer_2" data-name="Layer 2"><g id="Filled_Icons" data-name="Filled Icons"><path d="M21.14,4.24c-.47,1.33-1.43,3.47-2.92,4.21a.5.5,0,0,1-.34,0,3.84,3.84,0,0,0-2.67.44,5.3,5.3,0,0,1,.73,1.77,1.37,1.37,0,0,0,.84-.14.5.5,0,0,1,.58.09c1.21,1.21-.36,2.85-1.3,3.82-.17.17-.38.39-.5.54l.12.11a1.29,1.29,0,0,1,.56.9,1.13,1.13,0,0,1-.39.83,5.15,5.15,0,0,1-1.37,1c-.14,1.7-1.4,2.66-3.49,2.66-1,0-2-2.49-2-3a2.18,2.18,0,0,1,.3-1A1.51,1.51,0,0,0,9.5,16a3.83,3.83,0,0,0-.85-1.15.5.5,0,0,1-.15-.35,1.2,1.2,0,0,0-.23-.86c-.25-.24-.85-.2-1.48-.17-.26,0-.53,0-.79,0-1.58,0-2-1.64-2-2.5,0-.16,0-3.92,2.9-4.49a3.29,3.29,0,0,1,2.7.24,1.1,1.1,0,0,1,.35.48c.53.39,1.47.17,2.31,0,.28-.06.55-.13.79-.16a7.42,7.42,0,0,0,0-2,1.93,1.93,0,0,1-1.7,0,1.79,1.79,0,0,1-.86-1.47C10.37,2.11,13.14,1,15,.39a12,12,0,1,0,6.09,3.84Z"/></g></g></svg>