<?xml version="1.0" encoding="utf-8"?>
<!-- Generator: Adobe Illustrator 19.2.1, SVG Export Plug-In . SVG Version: 6.00 Build 0)  -->
<svg version="1.1" id="Layer_1" xmlns="http://www.w3.org/2000/svg" xmlns:xlink="http://www.w3.org/1999/xlink" x="0px" y="0px"
	 viewBox="0 0 24 24" style="enable-background:new 0 0 24 24;" xml:space="preserve">
<title>lock</title>
<g id="Layer_2">
	<g id="Filled_Icons">
		<path d="M20.5,9H18V6c0-3.3-2.7-6-6-6S6,2.7,6,6v3H3.5C3.2,9,3,9.2,3,9.5v14C3,23.8,3.2,24,3.5,24h17c0.3,0,0.5-0.2,0.5-0.5v-14
			C21,9.2,20.8,9,20.5,9z M7,6c0-2.8,2.2-5,5-5s5,2.2,5,5v3H7V6z M12.5,15.9v2.6c0,0.3-0.2,0.5-0.5,0.5s-0.5-0.2-0.5-0.5v-2.6
			c-0.5-0.3-0.6-0.9-0.4-1.4c0.3-0.5,0.9-0.6,1.4-0.4s0.6,0.9,0.4,1.4C12.8,15.6,12.7,15.8,12.5,15.9z"/>
	</g>
</g>
</svg>
