<svg xmlns="http://www.w3.org/2000/svg" viewBox="0 0 24 24"><title>maximize</title><g id="Layer_2" data-name="Layer 2"><g id="Filled_Icons" data-name="Filled Icons"><path d="M18,17V7a1,1,0,0,0-1-1H7A1,1,0,0,0,6,7V17a1,1,0,0,0,1,1H17A1,1,0,0,0,18,17Zm-2-1H8V8h8Z"/><path d="M6,0H1A1,1,0,0,0,0,1V6A1,1,0,0,0,2,6V3.41L4.29,5.71A1,1,0,0,0,5.71,4.29L3.41,2H6A1,1,0,0,0,6,0Z"/><path d="M24,6V1a1,1,0,0,0-1-1H18a1,1,0,0,0,0,2h2.59L18.29,4.29a1,1,0,0,0,1.41,1.41L22,3.41V6a1,1,0,0,0,2,0Z"/><path d="M18,24h5a1,1,0,0,0,1-1V18a1,1,0,0,0-2,0v2.59l-2.29-2.29a1,1,0,0,0-1.41,1.41L20.59,22H18a1,1,0,0,0,0,2Z"/><path d="M0,18v5a1,1,0,0,0,1,1H6a1,1,0,0,0,0-2H3.41l2.29-2.29a1,1,0,0,0-1.41-1.41L2,20.59V18a1,1,0,0,0-2,0Z"/></g></g></svg>