<svg xmlns="http://www.w3.org/2000/svg" viewBox="0 0 24 24"><title>minimize</title><g id="Layer_2" data-name="Layer 2"><g id="Filled_Icons" data-name="Filled Icons"><path d="M15,8H9A1,1,0,0,0,8,9v6a1,1,0,0,0,1,1h6a1,1,0,0,0,1-1V9A1,1,0,0,0,15,8Zm-1,6H10V10h4Z"/><path d="M8,22V17a1,1,0,0,0-1-1H2a1,1,0,0,0,0,2H4.59L.29,22.29a1,1,0,0,0,1.41,1.41L6,19.41V22a1,1,0,0,0,2,0Z"/><path d="M16,22V17a1,1,0,0,1,1-1h5a1,1,0,0,1,0,2H19.41l4.29,4.29a1,1,0,0,1-1.41,1.41L18,19.41V22a1,1,0,0,1-2,0Z"/><path d="M16,2V7a1,1,0,0,0,1,1h5a1,1,0,0,0,0-2H19.41l4.29-4.29A1,1,0,0,0,22.29.29L18,4.59V2a1,1,0,0,0-2,0Z"/><path d="M8,2V7A1,1,0,0,1,7,8H2A1,1,0,0,1,2,6H4.59L.29,1.71A1,1,0,0,1,1.71.29L6,4.59V2A1,1,0,0,1,8,2Z"/></g></g></svg>