<?xml version="1.0" encoding="utf-8"?>
<!-- Generator: Adobe Illustrator 19.2.1, SVG Export Plug-In . SVG Version: 6.00 Build 0)  -->
<svg version="1.1" id="Layer_1" xmlns="http://www.w3.org/2000/svg" xmlns:xlink="http://www.w3.org/1999/xlink" x="0px" y="0px"
	 viewBox="0 0 24 24" style="enable-background:new 0 0 24 24;" xml:space="preserve">
<title>more</title>
<g id="Layer_2">
	<g id="Filled_Icons">
		<path d="M12,18.5c1.5,0,2.8,1.2,2.8,2.8S13.5,24,12,24s-2.8-1.2-2.8-2.8C9.2,19.7,10.5,18.5,12,18.5C12,18.5,12,18.5,12,18.5z"/>
		<path d="M12,9.2c1.5,0,2.8,1.2,2.8,2.8s-1.2,2.8-2.8,2.8S9.2,13.5,9.2,12C9.2,10.5,10.5,9.2,12,9.2C12,9.2,12,9.2,12,9.2z"/>
		<path d="M12,0c1.5,0,2.8,1.2,2.8,2.8S13.5,5.5,12,5.5S9.2,4.3,9.2,2.8S10.5,0,12,0C12,0,12,0,12,0z"/>
	</g>
</g>
</svg>
