<svg xmlns="http://www.w3.org/2000/svg" viewBox="0 0 24 24"><title>options</title><g id="Layer_2" data-name="Layer 2"><g id="Filled_Icons" data-name="Filled Icons"><path d="M23.5,10H20.65a12.84,12.84,0,0,0-.78-2.33l2-2a.5.5,0,0,0,0-.71L19.07,2.1a.5.5,0,0,0-.71,0l-2,2A12.77,12.77,0,0,0,14,3.36V.5a.5.5,0,0,0-.5-.5h-3a.5.5,0,0,0-.5.5V3.36a12.75,12.75,0,0,0-2.33.78l-2-2a.5.5,0,0,0-.71,0L2.1,4.93a.5.5,0,0,0,0,.71l2,2A12.89,12.89,0,0,0,3.35,10H.5a.5.5,0,0,0-.5.5v3a.5.5,0,0,0,.5.5H3.35a12.92,12.92,0,0,0,.78,2.33l-2,2a.5.5,0,0,0,0,.71L4.93,21.9a.51.51,0,0,0,.71,0l2-2a12.91,12.91,0,0,0,2.33.78V23.5a.5.5,0,0,0,.5.5h3a.5.5,0,0,0,.5-.5V20.65a12.94,12.94,0,0,0,2.33-.78l2,2a.5.5,0,0,0,.71,0l2.83-2.83a.5.5,0,0,0,0-.71l-2-2A12.88,12.88,0,0,0,20.65,14H23.5a.5.5,0,0,0,.5-.5v-3A.5.5,0,0,0,23.5,10ZM12,16a4,4,0,1,1,4-4A4,4,0,0,1,12,16Z"/></g></g></svg>