<?xml version="1.0" encoding="utf-8"?>
<!-- Generator: Adobe Illustrator 19.2.1, SVG Export Plug-In . SVG Version: 6.00 Build 0)  -->
<svg version="1.1" id="Layer_1" xmlns="http://www.w3.org/2000/svg" xmlns:xlink="http://www.w3.org/1999/xlink" x="0px" y="0px"
	 viewBox="0 0 24 24" style="enable-background:new 0 0 24 24;" xml:space="preserve">
<title>sort</title>
<g id="Layer_2">
	<g id="Filled_Icons">
		<path d="M11,2.2h11.9c0.6,0,1.1-0.5,1.1-1.1c0,0,0,0,0,0C24,0.5,23.5,0,22.9,0c0,0,0,0,0,0H11c-0.6,0-1.1,0.4-1.2,1.1c0,0,0,0,0,0
			C9.9,1.7,10.4,2.2,11,2.2C11,2.2,11,2.2,11,2.2z"/>
		<path d="M11,6.6h8.6c0.6,0.1,1.1-0.4,1.2-1c0.1-0.6-0.4-1.1-1-1.2c-0.1,0-0.1,0-0.2,0H11c-0.6-0.1-1.1,0.4-1.2,1s0.4,1.1,1,1.2
			C10.9,6.6,10.9,6.6,11,6.6z"/>
		<path d="M16.3,8.7H11c-0.6-0.1-1.1,0.4-1.2,1c-0.1,0.6,0.4,1.1,1,1.2c0.1,0,0.1,0,0.2,0h5.3c0.6,0.1,1.1-0.4,1.2-1
			c0.1-0.6-0.4-1.1-1-1.2C16.4,8.7,16.3,8.7,16.3,8.7L16.3,8.7z"/>
		<path d="M10.6,19.5l-4.3,4.1c-0.5,0.5-1.2,0.5-1.7,0l-4.2-4.1c-0.5-0.4-0.5-1.2,0-1.6c0,0,0,0,0,0c0.5-0.5,1.2-0.5,1.7,0l2.3,1.8
			V1.1C4.3,0.6,4.7,0.1,5.3,0c0.1,0,0.1,0,0.2,0C6,0,6.5,0.3,6.6,0.9c0,0.1,0,0.1,0,0.2v18.5l2.3-1.8c0.5-0.5,1.2-0.5,1.7,0
			C11,18.3,11,19,10.6,19.5C10.6,19.5,10.6,19.5,10.6,19.5z"/>
	</g>
</g>
</svg>
