<?xml version="1.0" encoding="utf-8"?>
<!-- Generator: Adobe Illustrator 19.2.1, SVG Export Plug-In . SVG Version: 6.00 Build 0)  -->
<svg version="1.1" id="Layer_1" xmlns="http://www.w3.org/2000/svg" xmlns:xlink="http://www.w3.org/1999/xlink" x="0px" y="0px"
	 viewBox="0 0 24 24" style="enable-background:new 0 0 24 24;" xml:space="preserve">
<title>sync</title>
<g id="Layer_2">
	<g id="Filled_Icons">
		<path d="M19.4,5.7C15.9,1.8,9.9,1.4,6,4.9c-1.8,1.6-3,3.9-3.2,6.4l-1-1.5c-0.3-0.4-1-0.5-1.4-0.2C0,9.9-0.1,10.5,0.2,10.9l2.9,4.3
			c0.4,0.4,1,0.4,1.4,0l3.3-3.9c0.4-0.4,0.3-1.1-0.1-1.4S6.6,9.6,6.2,10l0,0l-1.4,1.7c0.1-4.1,3.6-7.4,7.7-7.2c2.1,0.1,4,1,5.4,2.5
			c0.4,0.4,1,0.5,1.4,0.1C19.7,6.7,19.8,6.1,19.4,5.7L19.4,5.7z"/>
		<path d="M23.8,13.1l-2.9-4.3c-0.4-0.4-1-0.4-1.4,0l-3.3,3.9c-0.4,0.4-0.3,1.1,0.1,1.4c0.4,0.4,1.1,0.3,1.4-0.1l1.4-1.7
			c-0.1,4.1-3.6,7.4-7.7,7.2c-2.1-0.1-4-1-5.4-2.5c-0.4-0.4-1-0.5-1.4-0.1s-0.5,1-0.1,1.4l0,0c3.5,3.9,9.5,4.3,13.4,0.8
			c1.8-1.6,3-3.9,3.2-6.4l1,1.5c0.3,0.5,0.9,0.6,1.4,0.3C24,14.2,24.1,13.5,23.8,13.1L23.8,13.1z"/>
	</g>
</g>
</svg>
