<?xml version="1.0" encoding="utf-8"?>
<!-- Generator: Adobe Illustrator 19.2.1, SVG Export Plug-In . SVG Version: 6.00 Build 0)  -->
<svg version="1.1" id="Layer_1" xmlns="http://www.w3.org/2000/svg" xmlns:xlink="http://www.w3.org/1999/xlink" x="0px" y="0px"
	 viewBox="0 0 24 24" style="enable-background:new 0 0 24 24;" xml:space="preserve">
<title>visibilityon</title>
<g id="Layer_2">
	<g id="Filled_Icons">
		<path d="M0.1,12.3C0.3,12.6,5.5,19,12,19s11.7-6.4,11.9-6.7c0.1-0.2,0.1-0.4,0-0.6C23.7,11.4,18.5,5,12,5S0.3,11.4,0.1,11.7
			C0,11.9,0,12.1,0.1,12.3z M12,7.5c2.5,0,4.5,2,4.5,4.5s-2,4.5-4.5,4.5s-4.5-2-4.5-4.5C7.5,9.5,9.5,7.5,12,7.5z"/>
		<circle cx="12" cy="12" r="3.5"/>
	</g>
</g>
</svg>
