<svg xmlns="http://www.w3.org/2000/svg" viewBox="0 0 791.305 512">
  <path fill="#264de4" d="M181.145 512L33.011 470.877 0 100.62h362.734l-33.046 370.199z"/>
  <path fill="#2965f1" d="M301.397 447.246l28.24-316.352h-148.27v349.629z"/>
  <path fill="#ebebeb" d="M75.677 268.217l4.07 45.41h101.62v-45.41zM67.499 176.305l4.128 45.411h109.74v-45.411h-.157zM181.367 386.153l-.199.053-50.574-13.656-3.233-36.217H81.776l6.362 71.301 93.02 25.823.209-.058z"/>
  <path d="M85.367 0h55v23h-32v23h32v23h-55zM151.367 0h55v20h-32v4h32v46h-55V49h32v-4h-32zM217.367 0h55v20h-32v4h32v46h-55V49h32v-4h-32z"/>
  <path fill="#fff" d="M286.766 268.217l8.198-91.912H181.21v45.411h63.988l-4.132 46.501H181.21v45.41h55.918l-5.271 58.894-50.647 13.67v47.244l93.094-25.801.683-7.672 10.671-119.551z"/>
  <g>
    <path fill="#e44d26" d="M791.305 100.62L758.26 470.819 609.716 512l-148.134-41.123-33.01-370.257z"/>
    <path fill="#f16529" d="M609.938 480.523l120.03-33.277 28.24-316.352h-148.27z"/>
    <path fill="#ebebeb" d="M545.698 221.716h64.24v-45.411H496.071l1.086 12.183 11.161 125.139h101.62v-45.41h-60.09zM555.932 336.333h-45.585l6.362 71.301 93.02 25.823.21-.058v-47.246l-.2.053-50.574-13.656z"/>
    <path d="M462.32 0h23.077v22.8h21.11V0h23.078v69.044h-23.077v-23.12h-21.11v23.12h-23.077V0zM559.932 22.896h-20.316V0h63.72v22.896h-20.325v46.148h-23.078V22.896zM613.45 0h24.062l14.802 24.26L667.101 0h24.072v69.044h-22.982V34.822l-15.877 24.549h-.397L636.03 34.822v34.222h-22.58V0zM702.658 0h23.084v46.222h32.453v22.822h-55.537V0z"/>
    <path fill="#fff" d="M609.781 313.627H665.7l-5.27 58.894-50.648 13.67v47.244l93.094-25.801.683-7.672 10.671-119.551 1.108-12.194H609.781zM609.781 221.605v.111H719.47l.911-10.207 2.07-23.021 1.085-12.183H609.781v28.204z"/>
  </g>
</svg>
