<svg xmlns="http://www.w3.org/2000/svg" width="206.07" height="204.965" viewBox="0 0 206.07 204.965"><path fill="#FFF" d="M194.054 31.027L145.072 3.039c-1.999-1-3.998-.5-4.998 1.498-.999 2-.5 4 1.5 4.998l46.982 26.99v131.452l-46.982 26.989c-2 1-2.499 3.499-1.5 4.998.5 1 1.999 2 2.999 2 .5 0 1.5 0 1.999-.5l48.982-28.489c.999-.5 1.999-2 1.999-2.998V34.526c-.5-1.999-1-2.999-1.999-3.499zM60.603 194.468l-48.981-26.989V36.026L60.603 9.037c2-1 2.499-3.5 1.5-4.998-1-2-3.499-2.5-4.998-1.5L6.124 30.529c-1 .5-1.999 1.998-1.999 3.498v135.45c0 1.5.5 2.5 1.999 3.498l50.981 28.489c.5.5.999.5 1.999.5 1.499 0 2.499-.5 3.499-1.999.499-1.998-.5-4.498-2-5.497z"/><g fill="#FFF"><path d="M100.089 161.281a3.8 3.8 0 0 1-3.286-1.893L48.321 75.92a3.8 3.8 0 0 1 1.386-5.199l48.481-27.989a3.801 3.801 0 0 1 3.814.009l47.982 27.989a3.8 3.8 0 0 1 1.38 5.176l-47.982 83.47a3.799 3.799 0 0 1-3.286 1.906l-.007-.001zM56.807 75.397l43.265 74.49 42.823-74.496-42.816-24.976-43.272 24.982z"/><path d="M100.089 160.281a3.8 3.8 0 0 1-3.8-3.801V76.011a3.8 3.8 0 1 1 7.6 0v80.471a3.8 3.8 0 0 1-3.8 3.799z"/></g></svg>