<svg id="Layer_1" data-name="Layer 1" xmlns="http://www.w3.org/2000/svg" viewBox="0 0 792 612"><defs><style>.cls-1{fill:#017ea3;}</style></defs><path class="cls-1" d="M120.29,547.63Q85,503.2,85,417.75q0-115,45.57-210.76T252.45,8.75l93.42,66.08q-45.58,63.81-75.76,122.47a364.47,364.47,0,0,0-38.17,122.48q47.85,10.25,76.33,47.28t28.49,92.85q0,58.09-33,95.13t-86.59,37Q155.62,592.07,120.29,547.63Zm360.59,0q-34.77-44.43-34.75-129.88,0-113.91,45-209.62T613.61,8.75L707,74.83q-45.59,63.81-75.76,122.47A364.24,364.24,0,0,0,593.1,319.78q46.7,10.25,75.76,47.85t29,92.28q0,58.09-33.61,95.13t-87.15,37Q515.62,592.07,480.88,547.63Z"/></svg>